<svg width="23" height="23" viewBox="0 0 23 23" fill="none" xmlns="http://www.w3.org/2000/svg">
<path d="M19.0064 14.5382C18.1896 13.7318 17.17 13.7318 16.3584 14.5382C15.7394 15.1521 15.1203 15.7659 14.5116 16.3902C14.3452 16.5619 14.2047 16.5983 14.0018 16.4838C13.6012 16.2653 13.1746 16.0885 12.7897 15.8492C10.9949 14.7203 9.49144 13.2688 8.15966 11.6353C7.49897 10.8238 6.91112 9.955 6.50014 8.97697C6.4169 8.77929 6.43251 8.64923 6.59378 8.48796C7.21285 7.8897 7.81631 7.27583 8.42497 6.66197C9.27294 5.8088 9.27294 4.80996 8.41977 3.95159C7.93596 3.46257 7.45215 2.98397 6.96834 2.49495C6.46892 1.99554 5.97471 1.49092 5.47009 0.996702C4.65333 0.200755 3.63369 0.200755 2.82214 1.0019C2.19787 1.61577 1.59961 2.24524 0.96493 2.84871C0.377074 3.40535 0.0805447 4.08685 0.0181175 4.88279C-0.0807255 6.17816 0.236613 7.40069 0.684007 8.59201C1.59961 11.0579 2.99381 13.248 4.68455 15.2561C6.96834 17.9717 9.69433 20.1202 12.8833 21.6705C14.3191 22.3676 15.807 22.9034 17.4249 22.9919C18.5382 23.0543 19.5058 22.7734 20.2809 21.9046C20.8116 21.3115 21.4098 20.7705 21.9717 20.2035C22.804 19.3607 22.8092 18.341 21.9821 17.5087C20.9936 16.5151 20 15.5266 19.0064 14.5382Z" fill="white"/>
</svg>
