<svg width="19" height="25" viewBox="0 0 19 25" fill="none" xmlns="http://www.w3.org/2000/svg">
<path d="M9.5 25C9.5 25 18.875 16.1156 18.875 9.375C18.875 6.8886 17.8873 4.50403 16.1291 2.74587C14.371 0.98772 11.9864 0 9.5 0C7.0136 0 4.62903 0.98772 2.87087 2.74587C1.11272 4.50403 0.125 6.8886 0.125 9.375C0.125 16.1156 9.5 25 9.5 25ZM9.5 14.0625C8.2568 14.0625 7.06451 13.5686 6.18544 12.6896C5.30636 11.8105 4.8125 10.6182 4.8125 9.375C4.8125 8.1318 5.30636 6.93951 6.18544 6.06044C7.06451 5.18136 8.2568 4.6875 9.5 4.6875C10.7432 4.6875 11.9355 5.18136 12.8146 6.06044C13.6936 6.93951 14.1875 8.1318 14.1875 9.375C14.1875 10.6182 13.6936 11.8105 12.8146 12.6896C11.9355 13.5686 10.7432 14.0625 9.5 14.0625Z" fill="white"/>
</svg>
